<svg width="20" height="20" viewBox="0 0 20 20" fill="none" xmlns="http://www.w3.org/2000/svg">
<path d="M8.23071 15.1017C8.46288 15.334 8.73855 15.5183 9.04197 15.644C9.34539 15.7697 9.67061 15.8345 9.99905 15.8345C10.3275 15.8345 10.6527 15.7697 10.9561 15.644C11.2595 15.5183 11.5352 15.334 11.7674 15.1017L14.4432 12.4258C14.5867 12.2672 14.6636 12.0594 14.6581 11.8455C14.6527 11.6317 14.5651 11.4282 14.4137 11.2771C14.2623 11.126 14.0586 11.0389 13.8447 11.0338C13.6309 11.0288 13.4232 11.1062 13.2649 11.25L10.8265 13.6892L10.8324 0.833333C10.8324 0.612319 10.7446 0.400358 10.5883 0.244078C10.432 0.0877974 10.2201 0 9.99905 0C9.77803 0 9.56607 0.0877974 9.40979 0.244078C9.25351 0.400358 9.16571 0.612319 9.16571 0.833333L9.15821 13.6733L6.73322 11.25C6.57685 11.0937 6.36481 11.006 6.14375 11.0061C5.9227 11.0062 5.71072 11.094 5.55447 11.2504C5.39821 11.4068 5.31047 11.6188 5.31055 11.8399C5.31063 12.0609 5.39852 12.2729 5.55488 12.4292L8.23071 15.1017Z" fill="#530B8B"/>
<path d="M19.1667 13.3335C18.9456 13.3335 18.7337 13.4213 18.5774 13.5776C18.4211 13.7339 18.3333 13.9458 18.3333 14.1668V17.5002C18.3333 17.7212 18.2455 17.9331 18.0893 18.0894C17.933 18.2457 17.721 18.3335 17.5 18.3335H2.5C2.27899 18.3335 2.06702 18.2457 1.91074 18.0894C1.75446 17.9331 1.66667 17.7212 1.66667 17.5002V14.1668C1.66667 13.9458 1.57887 13.7339 1.42259 13.5776C1.26631 13.4213 1.05435 13.3335 0.833333 13.3335C0.612319 13.3335 0.400358 13.4213 0.244078 13.5776C0.0877974 13.7339 0 13.9458 0 14.1668L0 17.5002C0 18.1632 0.263392 18.7991 0.732233 19.2679C1.20107 19.7368 1.83696 20.0002 2.5 20.0002H17.5C18.163 20.0002 18.7989 19.7368 19.2678 19.2679C19.7366 18.7991 20 18.1632 20 17.5002V14.1668C20 13.9458 19.9122 13.7339 19.7559 13.5776C19.5996 13.4213 19.3877 13.3335 19.1667 13.3335Z" fill="#530B8B"/>
</svg>
