<svg width="23" height="24" viewBox="0 0 23 24" fill="none" xmlns="http://www.w3.org/2000/svg">
<path fill-rule="evenodd" clip-rule="evenodd" d="M8.12573 2C8.84345 2 9.50615 2.38457 9.86225 3.00772L10.7061 4.48447L11.55 3.00772C11.9061 2.38457 12.5687 2 13.2865 2H17.8445C18.9963 2 19.7183 3.24422 19.1469 4.24421L15.7653 10.1621C16.9676 11.4191 17.7061 13.1233 17.7061 15C17.7061 18.866 14.5721 22 10.7061 22C6.84006 22 3.70605 18.866 3.70605 15C3.70605 13.1233 4.4446 11.419 5.64692 10.1621L2.26528 4.24421C1.69386 3.24422 2.41591 2 3.56764 2H8.12573ZM10.7061 10C7.94463 10 5.70605 12.2386 5.70605 15C5.70605 17.7614 7.94463 20 10.7061 20C13.4675 20 15.7061 17.7614 15.7061 15C15.7061 12.2386 13.4675 10 10.7061 10ZM10.7061 13C11.8107 13 12.7061 13.8954 12.7061 15C12.7061 16.1046 11.8107 17 10.7061 17C9.60145 17 8.70605 16.1046 8.70605 15C8.70605 13.8954 9.60145 13 10.7061 13ZM16.983 4H13.2865L11.8579 6.50003L12.919 8.35698C13.3579 8.50312 13.7775 8.69156 14.173 8.91744L16.983 4ZM8.12573 4H4.42923L7.23919 8.91743C8.18223 8.37877 9.26265 8.0531 10.4149 8.00595L8.12573 4Z" fill="white"/>
</svg>
