<svg width="44" height="44" viewBox="0 0 44 44" fill="none" xmlns="http://www.w3.org/2000/svg">
<circle cx="22" cy="22" r="22" fill="#FFB5B5"/>
<path d="M22.5 13C20.5118 13.0023 18.6056 13.7931 17.1997 15.1989C15.7937 16.6047 15.0026 18.5107 15 20.4989C15 22.4301 16.4952 25.4534 19.4447 29.4819C19.7959 29.9629 20.2556 30.3541 20.7865 30.6238C21.3174 30.8936 21.9045 31.0341 22.5 31.0341C23.0955 31.0341 23.6826 30.8936 24.2135 30.6238C24.7444 30.3541 25.2041 29.9629 25.5553 29.4819C28.5048 25.4523 30 22.4356 30 20.4989C29.9974 18.5107 29.2063 16.6047 27.8003 15.1989C26.3944 13.7931 24.4882 13.0023 22.5 13ZM22.5 23.4881C21.9055 23.4881 21.3244 23.3118 20.8301 22.9816C20.3358 22.6513 19.9506 22.1819 19.7231 21.6326C19.4956 21.0834 19.4361 20.4791 19.552 19.896C19.668 19.3129 19.9543 18.7774 20.3746 18.357C20.795 17.9367 21.3306 17.6504 21.9136 17.5344C22.4967 17.4184 23.101 17.478 23.6502 17.7055C24.1995 17.933 24.6689 18.3182 24.9992 18.8125C25.3294 19.3068 25.5057 19.8879 25.5057 20.4824C25.5057 20.8771 25.428 21.268 25.2769 21.6326C25.1259 21.9973 24.9045 22.3286 24.6254 22.6078C24.3463 22.8869 24.0149 23.1083 23.6502 23.2593C23.2856 23.4104 22.8947 23.4881 22.5 23.4881Z" fill="white"/>
</svg>
