<svg width="44" height="44" viewBox="0 0 44 44" fill="none" xmlns="http://www.w3.org/2000/svg">
<circle cx="22" cy="22" r="22" fill="#B5B8FF"/>
<path d="M22.2716 22.0371C24.7675 22.0371 26.7908 20.0141 26.7908 17.5186C26.7908 15.023 24.7675 13 22.2716 13C19.7757 13 17.7524 15.023 17.7524 17.5186C17.7524 20.0141 19.7757 22.0371 22.2716 22.0371Z" fill="white"/>
<path d="M22.34 23.1138C18.2884 23.1179 15.0048 26.0435 15 29.6543C15.012 29.8587 15.1046 30.0501 15.2575 30.1864C15.4103 30.3227 15.6111 30.3927 15.8156 30.3812H28.8644C29.0689 30.3927 29.2697 30.3227 29.4225 30.1864C29.5754 30.0501 29.668 29.8587 29.68 29.6543C29.6752 26.0435 26.3916 23.1179 22.34 23.1138Z" fill="white"/>
</svg>
