<svg width="20" height="20" viewBox="0 0 20 20" fill="none" xmlns="http://www.w3.org/2000/svg">
<path d="M20 6.66667C20 6.58917 19.9892 6.51167 19.9683 6.4375L18.9917 3.02167C18.4833 1.2425 16.835 0 14.985 0H5.01417C3.16417 0 1.51667 1.2425 1.0075 3.02167L0.0325 6.4375C0.0116667 6.51167 0 6.58917 0 6.66667C0 7.51 0.315 8.28083 0.833333 8.86917V16.6667C0.833333 18.505 2.32833 20 4.16667 20H9.16667C11.005 20 12.5 18.505 12.5 16.6667V9.5525C12.8133 9.37083 13.095 9.13917 13.3333 8.86917C13.9442 9.5625 14.8383 10 15.8333 10H16.6667C16.9542 10 17.2333 9.96333 17.5 9.89417V19.1667C17.5 19.6267 17.8725 20 18.3333 20C18.7942 20 19.1667 19.6267 19.1667 19.1667V8.86917C19.685 8.28167 20 7.51 20 6.66667ZM9.16667 18.3333H4.16667C3.2475 18.3333 2.5 17.5858 2.5 16.6667V15H10.8333V16.6667C10.8333 17.5858 10.0858 18.3333 9.16667 18.3333ZM10.8333 13.3333H2.5V9.89417C2.76667 9.96333 3.04583 10 3.33333 10H4.16667C5.16167 10 6.055 9.56167 6.66667 8.86917C7.27833 9.5625 8.17167 10 9.16667 10H10.8333V13.3333ZM15.8333 8.33333C14.9142 8.33333 14.1667 7.58583 14.1667 6.66667C14.1667 6.20667 13.7942 5.83333 13.3333 5.83333C12.8725 5.83333 12.5 6.20667 12.5 6.66667C12.5 7.58583 11.7525 8.33333 10.8333 8.33333H9.16667C8.2475 8.33333 7.5 7.58583 7.5 6.66667C7.5 6.20667 7.12667 5.83333 6.66667 5.83333C6.20667 5.83333 5.83333 6.20667 5.83333 6.66667C5.83333 7.58583 5.08583 8.33333 4.16667 8.33333H3.33333C2.925 8.33333 2.55 8.185 2.26 7.94083C2.23583 7.91667 2.21083 7.89417 2.18417 7.8725C1.88917 7.59167 1.69667 7.20417 1.67 6.7725L2.61 3.48C2.915 2.4125 3.90333 1.66667 5.01417 1.66667H5.83333V3.33333C5.83333 3.79333 6.20667 4.16667 6.66667 4.16667C7.12667 4.16667 7.5 3.79333 7.5 3.33333V1.66667H12.5V3.33333C12.5 3.79333 12.8725 4.16667 13.3333 4.16667C13.7942 4.16667 14.1667 3.79333 14.1667 3.33333V1.66667H14.985C16.095 1.66667 17.0842 2.4125 17.3892 3.48L18.33 6.7725C18.2758 7.6425 17.55 8.33417 16.6667 8.33417H15.8333V8.33333Z" fill="#530B8B"/>
</svg>
