<svg width="15" height="14" viewBox="0 0 15 14" fill="none" xmlns="http://www.w3.org/2000/svg">
<path fill-rule="evenodd" clip-rule="evenodd" d="M2.10623 9.76781C2.39467 9.20898 3.0039 8.83495 3.74167 8.92717C4.44982 9.01566 5.25172 9.14901 6.05796 9.35061C7.36843 9.67822 8.49689 10.3424 9.27354 10.899L9.50691 11.0706C9.54379 11.0985 9.57964 11.1259 9.61445 11.1528L9.8105 11.3079L9.9802 11.4481L10.1827 11.6236C10.6747 12.0622 10.3402 12.7777 9.78335 12.8301L9.71815 12.8332H4.70462C3.86781 12.8332 3.07385 12.4739 2.52194 11.8512L2.42709 11.7385L2.31071 11.5931C1.85925 11.0287 1.82134 10.3198 2.10623 9.76781ZM3.59697 10.0848C3.36404 10.0557 3.21617 10.161 3.14295 10.3029C3.07472 10.4351 3.06388 10.6181 3.17445 10.7973L3.22172 10.8642L3.3381 11.0097C3.64648 11.3952 4.10205 11.6311 4.5912 11.6628L4.70462 11.6665H8.33337C7.66231 11.2157 6.77202 10.7317 5.77502 10.4824C5.02553 10.295 4.27167 10.1691 3.59697 10.0848ZM11.1666 1.1665C11.5284 1.1665 11.7931 1.36355 11.9604 1.57701C12.1194 1.77982 12.2224 2.03219 12.2943 2.27508C12.4397 2.76646 12.5085 3.39912 12.5345 4.02989C12.5563 4.56164 12.5487 5.12458 12.5211 5.64942L12.4968 6.03482C12.4553 6.59895 12.3916 7.09292 12.3193 7.41803C12.0084 8.81704 11.4644 9.66246 10.8561 10.1231C10.2737 10.5642 9.59821 10.6595 9.15564 10.4382C8.96273 10.3418 8.77525 10.1687 8.62049 9.98872C8.45541 9.79675 8.28881 9.55169 8.15283 9.26696C7.88129 8.69862 7.71393 7.92967 7.98816 7.10705C8.15785 6.59797 8.48488 6.28062 8.77299 6.04289L8.95888 5.8936C9.28712 5.63227 9.56018 5.40826 9.76983 4.98896C9.82396 4.88065 9.86351 4.66192 9.87244 4.29185L9.87463 4.11527L9.86999 3.68028C9.86701 3.50488 9.86386 3.32007 9.86567 3.14094C9.86958 2.76215 9.89385 2.31328 10.0411 1.94682C10.1191 1.75289 10.2438 1.54953 10.4474 1.39592C10.6576 1.23738 10.906 1.1665 11.1666 1.1665ZM11.1097 2.42027C11.0614 2.56762 11.0358 2.8062 11.0323 3.15288L11.032 3.31735L11.0375 3.71912C11.0407 3.91446 11.0436 4.12052 11.0388 4.31998C11.0297 4.6944 10.9944 5.14846 10.8133 5.51071C10.5591 6.0191 10.2337 6.34874 9.94368 6.59594L9.77474 6.73514L9.68554 6.80635C9.33857 7.08261 9.1788 7.2243 9.09491 7.47595C8.94138 7.93673 9.02556 8.3873 9.20551 8.76413C9.29529 8.95202 9.40437 9.11092 9.50511 9.22806C9.55236 9.28304 9.59189 9.32206 9.62116 9.34847L9.6653 9.38544L9.72065 9.38336C9.79812 9.37692 9.95004 9.34585 10.1517 9.19311C10.4713 8.95103 10.908 8.39097 11.1804 7.16498C11.2053 7.05327 11.2297 6.91063 11.2524 6.74432L11.2852 6.47801C11.2904 6.43097 11.2954 6.38268 11.3003 6.33325L11.3277 6.02391L11.3503 5.69271C11.3536 5.63599 11.3567 5.57858 11.3595 5.52061L11.3733 5.16681C11.3837 4.80799 11.3836 4.43681 11.3688 4.07779C11.3442 3.47875 11.2802 2.95941 11.1756 2.60625C11.1528 2.52909 11.1303 2.4679 11.1097 2.42027Z" fill="black"/>
</svg>
