<svg width="74" height="74" viewBox="0 0 74 74" fill="none" xmlns="http://www.w3.org/2000/svg">
<g filter="url(#filter0_d_290_220)">
<circle cx="35" cy="34" r="26" fill="#F3F815"/>
</g>
<path d="M42.8816 29.1381C42.8764 28.7331 42.859 28.3179 42.8238 27.9048L42.8237 27.9043C42.6311 25.6722 41.837 24.4742 41.0164 23.5343L41.0164 23.5343L41.0128 23.5303C40.4853 22.9389 39.8635 22.4379 39.1722 22.0489C37.9273 21.3387 36.5196 20.9814 35.0001 20.9814C33.4799 20.9814 32.0796 21.3391 30.8332 22.0489C30.1411 22.4388 29.5171 22.9408 28.9891 23.5338L28.9891 23.5337L28.9861 23.5372C28.1651 24.4764 27.3712 25.6777 27.1785 27.9074L27.1785 27.9078C27.1433 28.3196 27.1259 28.7357 27.1207 29.1399C27.0339 29.1333 26.9469 29.13 26.8598 29.13C25.7081 29.13 24.7139 29.763 24.3139 30.8153C24.0317 31.5425 24.0792 32.3566 24.4441 33.0456C24.7025 33.5355 25.1024 33.949 25.6324 34.3191C25.6324 34.3191 25.6325 34.3192 25.6326 34.3193L25.9189 33.9093M42.8816 29.1381L26.7771 35.0791C26.7708 35.0693 26.7649 35.0643 26.7604 35.0614L26.754 35.0574L26.7541 35.0573C26.7332 35.0436 26.7122 35.0298 26.6914 35.0161M42.8816 29.1381C42.9681 29.1314 43.0551 29.1279 43.1424 29.1279C44.294 29.1279 45.2867 29.7617 45.6874 30.8136C45.9671 31.54 45.9203 32.353 45.5539 33.0417C45.2967 33.53 44.8964 33.944 44.369 34.3133C44.2538 34.3956 44.0885 34.503 43.8989 34.6262C43.858 34.6528 43.816 34.6801 43.7732 34.708C43.7514 34.7222 43.7281 34.7373 43.7035 34.7534C43.5902 34.8272 43.4495 34.9189 43.3069 35.0126C43.4172 35.2441 43.5463 35.4666 43.6923 35.6794L43.6929 35.6802C44.2762 36.5337 45.1274 37.2692 46.243 37.8618C46.2819 37.8816 46.3243 37.9029 46.368 37.9248C46.4372 37.9596 46.5096 37.9959 46.5765 38.0305C46.6392 38.0604 46.7137 38.0984 46.7945 38.1456C47.2152 38.3799 47.6648 38.7095 47.8982 39.3439C48.1631 40.0635 47.9868 40.8489 47.4151 41.4739L47.4106 41.4799L47.3955 41.4967C47.1659 41.7512 46.8936 41.9652 46.5906 42.1272C46.0545 42.4217 45.4844 42.6481 44.8936 42.8031C44.8601 42.812 44.8277 42.8245 44.7968 42.8406C44.7908 42.8534 44.7819 42.8741 44.7695 42.9062C44.765 42.9181 44.7601 42.9312 44.7547 42.9456C44.7183 43.0431 44.6609 43.1966 44.5618 43.3655C44.3946 43.6574 44.1639 43.909 43.888 44.101L43.8867 44.1019C43.2476 44.5435 42.5355 44.5697 41.9502 44.5913C41.9361 44.5918 41.9222 44.5924 41.9083 44.5929C41.3523 44.6137 40.7863 44.6373 40.1406 44.8506C39.9175 44.9245 39.6637 45.0768 39.2906 45.3059L39.2903 45.3061L39.2868 45.3082C38.4012 45.8511 37.1142 46.64 34.999 46.64C32.8813 46.64 31.6022 45.8535 30.7218 45.312L30.7196 45.3106C30.3463 45.0784 30.0904 44.9244 29.8605 44.8489L29.8604 44.8488C29.214 44.6362 28.6472 44.6116 28.0919 44.5908L28.0912 44.5908C28.0744 44.5901 28.0576 44.5895 28.0406 44.5888C27.4584 44.5665 26.7495 44.5393 26.1135 44.0998L26.1133 44.0997C25.8792 43.9378 25.6793 43.7339 25.5213 43.4994C25.3672 43.2755 25.2943 43.0815 25.2462 42.9533L25.2411 42.9396C25.2216 42.8879 25.2089 42.8578 25.2013 42.8411C25.165 42.8222 25.1271 42.8076 25.0882 42.7975L25.0858 42.7969C24.5027 42.6427 23.9402 42.4173 23.4113 42.1276C23.128 41.9768 22.871 41.7817 22.6499 41.5511M42.8816 29.1381L22.6499 41.5511M25.9189 33.9093C26.0194 33.9796 26.1642 34.0743 26.3432 34.1913C26.3926 34.2236 26.4445 34.2576 26.4989 34.2932C26.5428 34.3219 26.5933 34.3548 26.6482 34.3906C26.763 34.4655 26.8969 34.5528 27.0288 34.6396C27.0977 34.6834 27.1551 34.7418 27.1989 34.8107M25.9189 33.9093C25.4348 33.5713 25.0978 33.2135 24.8861 32.8119L25.9189 33.9093ZM27.1989 34.8107L26.8263 34.99L26.8104 34.9828L26.8048 34.9803L26.728 34.9454C26.7277 34.9394 26.7277 34.9341 26.7279 34.9296C26.7281 34.924 26.7286 34.9206 26.7287 34.9198C26.7288 34.9192 26.7286 34.9208 26.7276 34.925C26.7259 34.9322 26.7226 34.9444 26.7162 34.9629C26.708 34.9807 26.6998 34.9984 26.6914 35.0161M27.1989 34.8107L26.8792 35.0141L27.1801 35.1507C27.2406 34.9849 27.2396 34.8952 27.1989 34.8107ZM26.6914 35.0161C26.5815 35.2477 26.4531 35.4697 26.3077 35.6802L26.3077 35.6802L26.3058 35.6829C25.7358 36.5194 24.9096 37.241 23.8296 37.8284C23.7604 37.8651 23.6844 37.9025 23.6038 37.9422C23.0946 38.1927 22.4024 38.5333 22.102 39.3489C21.8267 40.0961 22.0267 40.9115 22.6499 41.5511M26.6914 35.0161L22.6499 41.5511M43.2695 34.9321C43.2684 34.9298 43.2674 34.9275 43.2663 34.9251L43.1643 34.9712L43.2695 34.9321ZM43.2695 34.9321C43.2695 34.9312 43.2695 34.9304 43.2695 34.9295C43.2692 34.9184 43.2679 34.9148 43.2692 34.9211C43.2703 34.9258 43.2724 34.9343 43.2765 34.9475L43.2695 34.9321ZM45.3177 40.0836C44.1885 39.5121 43.3281 38.853 42.6761 38.1968L42.6758 38.1964C42.4098 37.9283 42.1785 37.6606 41.9786 37.4008C41.9454 37.3584 41.9143 37.3168 41.8857 37.2781L41.8834 37.2758L41.8608 37.2449C40.9743 36.036 40.7478 35.0105 40.7218 34.8091L40.7217 34.8084C40.7205 34.7991 40.7191 34.7889 40.7177 34.7779C40.7029 34.6683 40.6776 34.4805 40.7144 34.2876C40.761 34.0438 40.8905 33.8357 41.0944 33.6474C41.272 33.4828 41.6929 33.2019 42.0587 32.9623C42.2073 32.8651 42.3527 32.7709 42.4851 32.6852C42.7069 32.5416 42.8921 32.4217 42.9941 32.3506C43.2275 32.1876 43.3555 32.0546 43.4182 31.9509C43.4696 31.8659 43.4779 31.8023 43.46 31.7257C43.4399 31.6469 43.3982 31.6028 43.322 31.5711C43.2293 31.5325 43.0896 31.5195 42.9396 31.5521C42.6702 31.6106 42.3956 31.7094 42.1277 31.813C42.086 31.8291 42.0432 31.8459 41.9996 31.863C41.7894 31.9454 41.5634 32.0341 41.3846 32.0777C41.1745 32.1302 40.9107 32.1205 40.6906 31.9526C40.4606 31.7771 40.3843 31.5104 40.3994 31.2717L40.3995 31.2711C40.4007 31.2521 40.402 31.2327 40.4033 31.2129C40.4484 30.517 40.5293 29.2718 40.4295 28.1144L40.4294 28.1135C40.3216 26.8356 39.8 25.6339 38.8752 24.7828C38.2917 24.2583 37.0292 23.3887 34.997 23.3887C32.3959 23.3887 31.0557 24.8193 30.7884 25.1249C30.4238 25.5426 30.1195 25.9854 29.9328 26.4647L45.3177 40.0836ZM45.3177 40.0836C44.8851 40.3082 44.5193 40.4166 44.1828 40.5073C44.1469 40.5169 44.1103 40.5266 44.0732 40.5364C43.7517 40.6214 43.3895 40.7171 43.0687 40.9241C43.0686 40.9241 43.0685 40.9242 43.0685 40.9242L43.3396 41.3443M45.3177 40.0836L42.4932 42.1316C42.4982 42.1111 42.5031 42.0851 42.5085 42.05L42.5086 42.0498C42.5096 42.043 42.5122 42.0241 42.5156 41.9991C42.5237 41.9396 42.5365 41.8451 42.5451 41.7949M43.3396 41.3443C43.1341 41.4768 43.0715 41.6761 43.0381 41.8785M43.3396 41.3443C43.5898 41.1828 43.8726 41.1075 44.2064 41.0185C44.6101 40.9109 45.0884 40.7835 45.6743 40.4597L43.3396 41.3443ZM43.0381 41.8785L42.5456 41.7923C42.5454 41.7932 42.5453 41.794 42.5451 41.7949M43.0381 41.8785C43.0297 41.9265 43.0234 41.9749 43.0171 42.0226C43.0125 42.0578 43.0079 42.0927 43.0026 42.1268M43.0381 41.8785L42.5448 41.7971C42.5449 41.7964 42.545 41.7957 42.5451 41.7949M42.5451 41.7949L43.0026 42.1268M43.0026 42.1268C42.9765 42.2947 42.9369 42.4449 42.8065 42.5347C42.6246 42.6604 42.2884 42.6734 41.8352 42.6909L43.0026 42.1268ZM29.0986 31.3107C29.1122 31.5496 28.9619 31.6539 28.7324 31.5986C28.5896 31.5643 28.4037 31.4917 28.1912 31.4087L29.0986 31.3107ZM29.0986 31.3107C29.0954 31.2554 29.0918 31.196 29.0879 31.1327M29.0986 31.3107L29.0879 31.1327M27.0587 31.5594C26.9874 31.544 26.9198 31.5363 26.8567 31.5363C26.7235 31.5363 26.6218 31.599 26.5705 31.6713C26.5273 31.7321 26.5068 31.8138 26.5634 31.9272L26.5636 31.9276C26.6324 32.0658 26.7793 32.2 27.0053 32.3581C27.1072 32.4291 27.2913 32.5485 27.5119 32.6914C27.6449 32.7776 27.7911 32.8724 27.9406 32.9703C28.3066 33.2102 28.7274 33.4914 28.9049 33.6558C28.9051 33.6561 28.9054 33.6563 28.9057 33.6566L28.5655 34.023L27.0587 31.5594ZM27.0587 31.5594C27.3276 31.6179 27.6021 31.7168 27.8701 31.8203C27.911 31.8361 27.9531 31.8526 27.9959 31.8693C28.2076 31.9522 28.4356 32.0415 28.6153 32.0847L27.0587 31.5594ZM26.9329 40.9215L26.9335 40.922C27.3752 41.2066 27.4407 41.664 27.4726 41.8942C27.4762 41.9202 27.4794 41.9434 27.4822 41.9643C27.4931 42.0447 27.4994 42.091 27.509 42.1296C27.5413 42.1384 27.6022 42.1515 27.7078 42.1619C27.8386 42.1749 27.9868 42.1805 28.171 42.1876C28.2439 42.1903 28.3224 42.1933 28.4077 42.1971C28.9866 42.2226 29.7511 42.2799 30.6159 42.5659M26.9329 40.9215L30.6159 42.5659M26.9329 40.9215C26.6113 40.7151 26.2489 40.6196 25.9268 40.5347C25.89 40.5251 25.8538 40.5155 25.8182 40.506C25.4828 40.4159 25.1187 40.3086 24.6888 40.0875M26.9329 40.9215L24.6888 40.0875M30.6159 42.5659L30.459 43.0406M30.6159 42.5659C30.6157 42.5658 30.6155 42.5658 30.6153 42.5657L30.459 43.0406M30.459 43.0406C29.5522 42.7407 28.7601 42.7105 28.1674 42.6878C27.7147 42.6705 27.3783 42.6577 27.1958 42.5326L30.459 43.0406ZM24.6888 40.0875C26.4624 39.1866 27.5687 38.0731 28.2484 37.0977L24.6888 40.0875ZM29.0879 31.1327C29.0447 30.4182 28.9716 29.2124 29.0694 28.0788L29.0879 31.1327ZM43.2499 35.0208L43.1975 34.9959L43.2655 34.9722C43.2652 34.9739 43.2648 34.9756 43.2644 34.9774C43.2602 34.9965 43.2543 35.0114 43.2499 35.0208ZM28.6156 32.0848C28.8117 32.1319 29.0807 32.1366 29.3091 31.9631C29.5491 31.7808 29.6105 31.5055 29.5978 31.2823L29.5977 31.2815C29.5945 31.2261 29.5909 31.1669 29.5871 31.1042C29.5438 30.3869 29.4731 29.2165 29.5675 28.1217L29.5675 28.1216C29.6166 27.5515 29.7306 26.9846 29.9328 26.4648L28.6156 32.0848Z" fill="white" stroke="white"/>
<defs>
<filter id="filter0_d_290_220" x="0" y="0" width="74" height="74" filterUnits="userSpaceOnUse" color-interpolation-filters="sRGB">
<feFlood flood-opacity="0" result="BackgroundImageFix"/>
<feColorMatrix in="SourceAlpha" type="matrix" values="0 0 0 0 0 0 0 0 0 0 0 0 0 0 0 0 0 0 127 0" result="hardAlpha"/>
<feOffset dx="2" dy="3"/>
<feGaussianBlur stdDeviation="5.5"/>
<feComposite in2="hardAlpha" operator="out"/>
<feColorMatrix type="matrix" values="0 0 0 0 0 0 0 0 0 0 0 0 0 0 0 0 0 0 0.18 0"/>
<feBlend mode="normal" in2="BackgroundImageFix" result="effect1_dropShadow_290_220"/>
<feBlend mode="normal" in="SourceGraphic" in2="effect1_dropShadow_290_220" result="shape"/>
</filter>
</defs>
</svg>
