<svg width="14" height="14" viewBox="0 0 14 14" fill="none" xmlns="http://www.w3.org/2000/svg">
<g clip-path="url(#clip0_690_19316)">
<path fill-rule="evenodd" clip-rule="evenodd" d="M3.39919 7.58521C3.43804 7.49777 3.56212 7.49777 3.60097 7.58521L3.70015 7.80192C4.12446 8.67972 4.79289 9.41658 5.62505 9.92414L5.77956 10.0147C5.85138 10.0551 5.85138 10.1585 5.77956 10.1988L5.62505 10.2894C4.79289 10.797 4.12446 11.5338 3.70015 12.4116L3.60097 12.6284C3.56212 12.7157 3.43804 12.7157 3.39919 12.6284L3.30001 12.4116C2.8757 11.5338 2.20727 10.797 1.37511 10.2894L1.2206 10.1988C1.1488 10.1585 1.1488 10.0551 1.2206 10.0147L1.37511 9.92414C2.20727 9.41658 2.8757 8.67972 3.30001 7.80192C3.33455 7.73052 3.3669 7.65784 3.39919 7.58521ZM3.49831 9.619L3.39614 9.73917C3.32349 9.82095 3.24869 9.90082 3.17183 9.97868L3.055 10.094L3.03922 10.1078L3.17184 10.2379L3.28557 10.3562L3.39615 10.4774L3.49831 10.5973L3.6007 10.4774C3.67336 10.3957 3.74815 10.3158 3.82502 10.2379L3.95739 10.1078L3.94186 10.094C3.86295 10.0181 3.78606 9.94024 3.71129 9.86039L3.60071 9.73917L3.49831 9.619ZM8.44249 1.59228C8.5105 1.43929 8.72762 1.43929 8.79564 1.59228L8.88343 1.78826L8.96918 1.97155L9.08339 2.19941L9.21517 2.44373L9.28056 2.55859C9.8621 3.56214 10.6343 4.44123 11.5525 5.14661L11.8017 5.33122C11.9756 5.45544 12.1544 5.57361 12.3378 5.68543C12.4268 5.73976 12.517 5.79259 12.6081 5.8439C12.7338 5.91454 12.7338 6.09549 12.6081 6.16613C12.517 6.21747 12.4268 6.27026 12.3378 6.32463C12.2155 6.39914 12.0953 6.4765 11.9772 6.55661L11.767 6.70373C10.7542 7.4343 9.90683 8.37067 9.28056 9.45147L9.20385 9.58657C9.12149 9.73462 9.0432 9.88535 8.96918 10.0385L8.88343 10.2218L8.79564 10.4178C8.72762 10.5707 8.5105 10.5707 8.44249 10.4178L8.3547 10.2218L8.26895 10.0385L8.15474 9.81062L8.02295 9.56627L7.95756 9.45147C7.37603 8.44787 6.60377 7.56881 5.68561 6.86341L5.43643 6.67883C5.26247 6.55458 5.08369 6.43639 4.90037 6.32463C4.8113 6.27026 4.72115 6.21747 4.62996 6.16613C4.50431 6.09549 4.50431 5.91454 4.62996 5.8439C4.72115 5.79259 4.8113 5.73976 4.90037 5.68543C5.02258 5.61088 5.14278 5.53352 5.26087 5.45341L5.47116 5.3063C6.48383 4.57574 7.3313 3.63933 7.95756 2.55859L8.03427 2.42347C8.11664 2.27538 8.19492 2.1247 8.26895 1.97155L8.3547 1.78826L8.44249 1.59228ZM8.61906 3.70106C8.0324 4.57605 7.31129 5.35373 6.48231 6.00502C7.31129 6.65631 8.0324 7.43395 8.61906 8.30895C9.20572 7.43395 9.92678 6.65631 10.7558 6.00502C9.92678 5.35373 9.20572 4.57605 8.61906 3.70106Z" fill="#9A2921"/>
</g>
<defs>
<clipPath id="clip0_690_19316">
<rect width="14" height="14" fill="white"/>
</clipPath>
</defs>
</svg>
