<svg width="36" height="36" viewBox="0 0 36 36" fill="none" xmlns="http://www.w3.org/2000/svg">
<rect x="0.5" y="0.5" width="35" height="35" rx="17.5" fill="white"/>
<path d="M14.8099 8L11.1899 11.63" stroke="#ED7212" stroke-width="1.5" stroke-miterlimit="10" stroke-linecap="round" stroke-linejoin="round"/>
<path d="M21.1899 8L24.8099 11.63" stroke="#ED7212" stroke-width="1.5" stroke-miterlimit="10" stroke-linecap="round" stroke-linejoin="round"/>
<path d="M8 13.8501C8 12.0001 8.99 11.8501 10.22 11.8501H25.78C27.01 11.8501 28 12.0001 28 13.8501C28 16.0001 27.01 15.8501 25.78 15.8501H10.22C8.99 15.8501 8 16.0001 8 13.8501Z" stroke="#ED7212" stroke-width="1.5"/>
<path d="M15.76 20V23.55" stroke="#ED7212" stroke-width="1.5" stroke-linecap="round"/>
<path d="M20.36 20V23.55" stroke="#ED7212" stroke-width="1.5" stroke-linecap="round"/>
<path d="M9.5 16L10.91 24.64C11.23 26.58 12 28 14.86 28H20.89C24 28 24.46 26.64 24.82 24.76L26.5 16" stroke="#ED7212" stroke-width="1.5" stroke-linecap="round"/>
<rect x="0.5" y="0.5" width="35" height="35" rx="17.5" stroke="#EDEDED"/>
</svg>
