<svg width="14" height="14" viewBox="0 0 14 14" fill="none" xmlns="http://www.w3.org/2000/svg">
<path fill-rule="evenodd" clip-rule="evenodd" d="M6.84082 7.74844C8.23819 7.74844 9.50975 8.15677 10.4445 8.73234C10.9117 9.02001 11.3104 9.35912 11.5985 9.72714C11.882 10.0893 12.0908 10.5227 12.0908 10.9859C12.0908 11.4833 11.851 11.8754 11.5059 12.1549C11.179 12.4198 10.7481 12.595 10.29 12.7175C9.36974 12.9633 8.14107 13.0462 6.84082 13.0462C5.54058 13.0462 4.31187 12.9633 3.39166 12.7175C2.93355 12.595 2.50271 12.4198 2.17571 12.1549C1.83065 11.8754 1.59082 11.4833 1.59082 10.9859C1.59082 10.5227 1.79968 10.0893 2.08314 9.72714C2.37125 9.35912 2.76999 9.02001 3.23714 8.73234C4.17188 8.15677 5.44346 7.74844 6.84082 7.74844ZM6.84082 8.92571C5.66085 8.92571 4.5991 9.27289 3.84483 9.73732C3.46749 9.96966 3.18281 10.2216 2.99863 10.4569C2.80979 10.6982 2.75749 10.8803 2.75749 10.9859C2.75749 11.0575 2.77882 11.1338 2.90606 11.2369C3.05135 11.3545 3.30393 11.4762 3.69032 11.5794C4.45911 11.7848 5.56373 11.8689 6.84082 11.8689C8.11791 11.8689 9.22251 11.7848 9.99135 11.5794C10.3777 11.4762 10.6303 11.3545 10.7756 11.2369C10.9028 11.1338 10.9242 11.0575 10.9242 10.9859C10.9242 10.8803 10.8718 10.6982 10.683 10.4569C10.4988 10.2216 10.2142 9.96966 9.83682 9.73732C9.08251 9.27289 8.02079 8.92571 6.84082 8.92571ZM6.84082 1.27344C8.45164 1.27344 9.75749 2.59115 9.75749 4.21662C9.75749 5.84209 8.45164 7.1598 6.84082 7.1598C5.22999 7.1598 3.92415 5.84209 3.92415 4.21662C3.92415 2.59115 5.22999 1.27344 6.84082 1.27344ZM6.84082 2.45071C5.8743 2.45071 5.09082 3.24134 5.09082 4.21662C5.09082 5.1919 5.8743 5.98253 6.84082 5.98253C7.80734 5.98253 8.59082 5.1919 8.59082 4.21662C8.59082 3.24134 7.80734 2.45071 6.84082 2.45071Z" fill="black"/>
<path d="M12.2499 5.25081C12.2499 4.92865 11.9887 4.66748 11.6666 4.66748C11.3444 4.66748 11.0832 4.92865 11.0832 5.25081V5.83415H10.4999C10.1777 5.83415 9.91657 6.09531 9.91657 6.41748C9.91657 6.73966 10.1777 7.00081 10.4999 7.00081H11.0832V7.58415C11.0832 7.90632 11.3444 8.16748 11.6666 8.16748C11.9887 8.16748 12.2499 7.90632 12.2499 7.58415V7.00081H12.8332C13.1554 7.00081 13.4166 6.73966 13.4166 6.41748C13.4166 6.09531 13.1554 5.83415 12.8332 5.83415H12.2499V5.25081Z" fill="black"/>
</svg>
