<svg width="87" height="74" viewBox="0 0 87 74" fill="none" xmlns="http://www.w3.org/2000/svg">
<g clip-path="url(#clip0_690_18074)">
<path d="M58.9055 1.4436C62.4877 1.4436 65.3916 4.34752 65.3916 7.92968C65.3916 10.1449 64.1838 11.9577 62.9113 13.2587C62.2132 13.9725 61.4709 14.558 60.8381 15.0004L60.5316 15.2097C60.4823 15.2426 60.4339 15.2744 60.3866 15.3053L60.1155 15.478L59.8733 15.6259L59.5736 15.8002C59.1562 16.0359 58.6548 16.0359 58.2374 15.8002L57.9377 15.6259L57.5634 15.3947C57.5182 15.3659 57.4718 15.3361 57.4245 15.3053L57.1287 15.1081C56.4642 14.6546 55.656 14.0319 54.8997 13.2587C53.6272 11.9577 52.4194 10.1449 52.4194 7.92968C52.4194 4.34752 55.3234 1.4436 58.9055 1.4436ZM58.9055 5.76765C57.7114 5.76765 56.7435 6.73563 56.7435 7.92968C56.7435 9.12377 57.7114 10.0917 58.9055 10.0917C60.0996 10.0917 61.0675 9.12377 61.0675 7.92968C61.0675 6.73563 60.0996 5.76765 58.9055 5.76765Z" fill="white"/>
</g>
<g clip-path="url(#clip1_690_18074)">
<path d="M18.6016 30.189C26.3067 30.189 32.5528 36.4351 32.5528 44.1401C32.5528 48.9049 29.9549 52.8041 27.2178 55.6026C25.7162 57.1378 24.1195 58.3972 22.7586 59.349L22.0993 59.7991C21.9932 59.8698 21.8891 59.9383 21.7872 60.0046L21.2041 60.3762L20.6832 60.6942L20.0387 61.0691C19.1409 61.5762 18.0623 61.5762 17.1644 61.0691L16.5199 60.6942L15.7147 60.197C15.6174 60.1351 15.5178 60.0709 15.4159 60.0046L14.7797 59.5805C13.3504 58.6052 11.6121 57.2658 9.98535 55.6026C7.24826 52.8041 4.65039 48.9049 4.65039 44.1401C4.65039 36.4351 10.8966 30.189 18.6016 30.189ZM18.6016 39.4898C16.0332 39.4898 13.9512 41.5718 13.9512 44.1401C13.9512 46.7086 16.0332 48.7905 18.6016 48.7905C21.17 48.7905 23.252 46.7086 23.252 44.1401C23.252 41.5718 21.17 39.4898 18.6016 39.4898Z" fill="white"/>
</g>
<path d="M17.6226 69.0216C17.6226 69.0216 87.6232 62.0052 85.1757 48.1356C82.7281 34.266 43.2405 37.5295 41.2825 29.2077C39.3244 20.8859 58.7418 19.5806 58.7418 19.5806" stroke="white" stroke-width="3.26343" stroke-linecap="round"/>
<path d="M84.8494 47.3203L85.9916 50.0942C85.9916 50.0942 87.4601 59.0687 51.7255 67.7168C30.0237 71.9592 17.6226 72.9383 17.6226 72.9383L17.2963 70.3275L15.6646 65.7587C15.6646 65.7587 29.2078 66.0851 50.5833 61.5163C66.8842 58.0321 78.812 54.4999 81.7491 52.2503C85.1597 49.6381 84.8494 47.3203 84.8494 47.3203Z" fill="white"/>
<circle cx="58.7418" cy="19.581" r="2.2844" fill="black"/>
<circle cx="18.9278" cy="68.8588" r="4.56881" fill="black"/>
<defs>
<clipPath id="clip0_690_18074">
<rect width="17.2962" height="17.2962" fill="white" transform="translate(50.2567)"/>
</clipPath>
<clipPath id="clip1_690_18074">
<rect width="37.2032" height="37.2032" fill="white" transform="translate(0 27.0859)"/>
</clipPath>
</defs>
</svg>
